<svg height="480pt" viewBox="-3 0 480 480" width="480pt" xmlns="http://www.w3.org/2000/svg"><path d="m469 271.601562-11.34375-11.257812c-12.667969-12.058594-32.566406-12.058594-45.230469 0l-68.425781 68.457031v-8.800781c0-13.253906-10.746094-24-24-24h-208c-2.121094 0-4.15625.84375-5.65625 2.34375l-26.34375 26.34375v-12.6875c0-4.417969-3.582031-8-8-8h-64c-4.417969 0-8 3.582031-8 8v160c0 4.417969 3.582031 8 8 8h64c4.417969 0 8-3.582031 8-8v-12.6875l35.3125-35.3125h220.6875c2.121094 0 4.15625-.84375 5.65625-2.34375l127.359375-127.359375c6.25-6.277344 6.242187-16.429687-.015625-22.695313zm-405 192.398438h-48v-144h48zm268.6875-56h-220.6875c-2.121094 0-4.15625.84375-5.65625 2.34375l-26.34375 26.34375v-89.375l35.3125-35.3125h204.6875c4.417969 0 8 3.582031 8 8v24h-104v16h112c4.417969 0 8-3.582031 8-8l79.734375-80.34375c6.25-6.246094 16.378906-6.246094 22.625 0l11.34375 11.304688zm0 0"/><path d="m83.878906 166.855469c2.535156 1.523437 5.707032 1.523437 8.242188 0 4.488281-2.6875 43.878906-27.128907 43.878906-54.855469 0-17.671875-14.328125-32-32-32-5.628906.003906-11.152344 1.511719-16 4.367188-4.847656-2.855469-10.371094-4.363282-16-4.367188-17.671875 0-32 14.328125-32 32 0 27.726562 39.390625 52.167969 43.878906 54.855469zm-11.878906-70.855469c3.941406.03125 7.734375 1.515625 10.648438 4.167969 3.042968 2.738281 7.660156 2.738281 10.703124 0 4.667969-4.265625 11.414063-5.363281 17.195313-2.796875 5.777344 2.5625 9.488281 8.308594 9.453125 14.628906 0 13.902344-20.625 30.769531-32 38.488281-11.375-7.71875-32-24.585937-32-38.488281 0-8.835938 7.164062-16 16-16zm0 0"/><path d="m379.878906 198.855469c2.535156 1.523437 5.707032 1.523437 8.242188 0 4.488281-2.6875 43.878906-27.128907 43.878906-54.855469 0-17.671875-14.328125-32-32-32-5.628906.003906-11.152344 1.511719-16 4.367188-4.847656-2.855469-10.371094-4.363282-16-4.367188-17.671875 0-32 14.328125-32 32 0 27.726562 39.390625 52.167969 43.878906 54.855469zm-11.878906-70.855469c3.941406.03125 7.734375 1.515625 10.648438 4.167969 3.042968 2.738281 7.660156 2.738281 10.703124 0 4.667969-4.265625 11.414063-5.363281 17.195313-2.796875 5.777344 2.5625 9.488281 8.308594 9.453125 14.628906 0 13.902344-20.625 30.769531-32 38.488281-11.375-7.71875-32-24.585937-32-38.488281 0-8.835938 7.164062-16 16-16zm0 0"/><path d="m40 32h16v32h-16zm0 0"/><path d="m40 0h16v16h-16zm0 0"/><path d="m80 32h16v16h-16zm0 0"/><path d="m416 72h16v16h-16zm0 0"/><path d="m416 40h16v16h-16zm0 0"/><path d="m376 64h16v32h-16zm0 0"/><path d="m336 72h16v16h-16zm0 0"/><path d="m336 40h16v16h-16zm0 0"/><path d="m236 278.945312c2.457031 1.402344 5.476562 1.402344 7.9375 0 6.183594-3.503906 60.0625-35.328124 60.0625-70.945312-.027344-22.082031-17.917969-39.972656-40-40-8.675781.015625-17.109375 2.882812-24 8.152344-6.890625-5.269532-15.324219-8.136719-24-8.152344-22.082031.027344-39.972656 17.917969-40 40 0 35.617188 53.878906 67.441406 60 70.945312zm-20-94.945312c6.917969.003906 13.488281 3.039062 17.976562 8.304688 1.5625 1.660156 3.742188 2.601562 6.023438 2.601562s4.460938-.941406 6.023438-2.601562c4.488281-5.265626 11.058593-8.300782 17.976562-8.304688 13.253906 0 24 10.746094 24 24 0 20.558594-31.640625 44.496094-48 54.679688-16.359375-10.167969-48-34.070313-48-54.679688 0-13.253906 10.746094-24 24-24zm0 0"/><path d="m184 136h16v16h-16zm0 0"/><path d="m232 144h16v16h-16zm0 0"/><path d="m280 136h16v16h-16zm0 0"/><path d="m184 88h16v32h-16zm0 0"/><path d="m232 64h16v48h-16zm0 0"/><path d="m280 88h16v32h-16zm0 0"/><path d="m280 56h16v16h-16zm0 0"/><path d="m120 48h16v16h-16zm0 0"/><path d="m80 0h16v16h-16zm0 0"/></svg>